<svg width="21" height="19" viewBox="0 0 21 19" fill="none" xmlns="http://www.w3.org/2000/svg">
<path d="M6.15 8.925C6.43333 8.925 6.67083 8.82917 6.8625 8.6375C7.05417 8.44583 7.15 8.20833 7.15 7.925C7.15 7.64167 7.05417 7.40417 6.8625 7.2125C6.67083 7.02083 6.43333 6.925 6.15 6.925C5.86667 6.925 5.62917 7.02083 5.4375 7.2125C5.24583 7.40417 5.15 7.64167 5.15 7.925C5.15 8.20833 5.24583 8.44583 5.4375 8.6375C5.62917 8.82917 5.86667 8.925 6.15 8.925ZM10.575 8.925C10.8583 8.925 11.0958 8.82917 11.2875 8.6375C11.4792 8.44583 11.575 8.20833 11.575 7.925C11.575 7.64167 11.4792 7.40417 11.2875 7.2125C11.0958 7.02083 10.8583 6.925 10.575 6.925C10.2917 6.925 10.0542 7.02083 9.8625 7.2125C9.67083 7.40417 9.575 7.64167 9.575 7.925C9.575 8.20833 9.67083 8.44583 9.8625 8.6375C10.0542 8.82917 10.2917 8.925 10.575 8.925ZM14.825 8.925C15.1083 8.925 15.3458 8.82917 15.5375 8.6375C15.7292 8.44583 15.825 8.20833 15.825 7.925C15.825 7.64167 15.7292 7.40417 15.5375 7.2125C15.3458 7.02083 15.1083 6.925 14.825 6.925C14.5417 6.925 14.3042 7.02083 14.1125 7.2125C13.9208 7.40417 13.825 7.64167 13.825 7.925C13.825 8.20833 13.9208 8.44583 14.1125 8.6375C14.3042 8.82917 14.5417 8.925 14.825 8.925ZM0.5 18.2V1.5C0.5 1.11667 0.65 0.770833 0.95 0.4625C1.25 0.154167 1.6 0 2 0H19C19.3833 0 19.7292 0.154167 20.0375 0.4625C20.3458 0.770833 20.5 1.11667 20.5 1.5V14.5C20.5 14.8833 20.3458 15.2292 20.0375 15.5375C19.7292 15.8458 19.3833 16 19 16H4.5L1.775 18.725C1.54167 18.9583 1.27083 19.0125 0.9625 18.8875C0.654167 18.7625 0.5 18.5333 0.5 18.2Z" fill="white"/>
</svg>
