<svg width="19" height="18" viewBox="0 0 19 18" fill="none" xmlns="http://www.w3.org/2000/svg">
<path d="M17.375 18C15.3417 18 13.3208 17.5 11.3125 16.5C9.30417 15.5 7.5 14.2 5.9 12.6C4.3 11 3 9.19583 2 7.1875C1 5.17917 0.5 3.15833 0.5 1.125C0.5 0.808333 0.608333 0.541667 0.825 0.325C1.04167 0.108333 1.30833 0 1.625 0H5.125C5.35833 0 5.5625 0.0791666 5.7375 0.2375C5.9125 0.395833 6.025 0.608333 6.075 0.875L6.75 4.025C6.78333 4.25833 6.77917 4.47083 6.7375 4.6625C6.69583 4.85417 6.60833 5.01667 6.475 5.15L3.975 7.675C4.90833 9.225 5.95417 10.575 7.1125 11.725C8.27083 12.875 9.58333 13.85 11.05 14.65L13.425 12.2C13.5917 12.0167 13.7833 11.8875 14 11.8125C14.2167 11.7375 14.4333 11.725 14.65 11.775L17.625 12.425C17.875 12.475 18.0833 12.6 18.25 12.8C18.4167 13 18.5 13.2333 18.5 13.5V16.875C18.5 17.1917 18.3917 17.4583 18.175 17.675C17.9583 17.8917 17.6917 18 17.375 18Z" fill="white"/>
</svg>
