<svg width="25" height="24" viewBox="0 0 25 24" fill="none" xmlns="http://www.w3.org/2000/svg">
<path d="M4 20C3.6 20 3.25 19.85 2.95 19.55C2.65 19.25 2.5 18.9 2.5 18.5V5.5C2.5 5.1 2.65 4.75 2.95 4.45C3.25 4.15 3.6 4 4 4H21C21.4 4 21.75 4.15 22.05 4.45C22.35 4.75 22.5 5.1 22.5 5.5V18.5C22.5 18.9 22.35 19.25 22.05 19.55C21.75 19.85 21.4 20 21 20H4ZM12.5 12.3C12.5833 12.3 12.6542 12.2875 12.7125 12.2625C12.7708 12.2375 12.8333 12.2083 12.9 12.175L20.75 7.05C20.8333 7 20.8958 6.93333 20.9375 6.85C20.9792 6.76667 21 6.675 21 6.575C21 6.35833 20.9042 6.1875 20.7125 6.0625C20.5208 5.9375 20.325 5.94167 20.125 6.075L12.5 10.95L4.9 6.075C4.7 5.94167 4.5 5.93333 4.3 6.05C4.1 6.16667 4 6.33333 4 6.55C4 6.65 4.025 6.74583 4.075 6.8375C4.125 6.92917 4.18333 7 4.25 7.05L12.1 12.175C12.1667 12.2083 12.2292 12.2375 12.2875 12.2625C12.3458 12.2875 12.4167 12.3 12.5 12.3Z" fill="white"/>
</svg>
